<?xml version="1.0" encoding="UTF-8" standalone="no"?>
<!DOCTYPE svg PUBLIC "-//W3C//DTD SVG 1.1//EN"
 "http://www.w3.org/Graphics/SVG/1.1/DTD/svg11.dtd">
<!-- Generated by graphviz version 13.1.1 (20250719.2154)
 -->
<!-- Title: Tree Pages: 1 -->
<svg width="440pt" height="816pt"
 viewBox="0.00 0.00 440.00 816.00" xmlns="http://www.w3.org/2000/svg" xmlns:xlink="http://www.w3.org/1999/xlink">
<g id="graph0" class="graph" transform="scale(1 1) rotate(0) translate(4 811.5)">
<title>Tree</title>
<polygon fill="white" stroke="none" points="-4,4 -4,-811.5 436.25,-811.5 436.25,4 -4,4"/>
<!-- 0 -->
<g id="node1" class="node">
<title>0</title>
<polygon fill="#fefcfa" stroke="black" points="292.38,-807.5 137.62,-807.5 137.62,-720.75 292.38,-720.75 292.38,-807.5"/>
<text xml:space="preserve" text-anchor="middle" x="215" y="-790.2" font-family="Helvetica,sans-Serif" font-size="14.00">petal width (cm) &lt;= 0.7</text>
<text xml:space="preserve" text-anchor="middle" x="215" y="-774.45" font-family="Helvetica,sans-Serif" font-size="14.00">gini = 0.666</text>
<text xml:space="preserve" text-anchor="middle" x="215" y="-758.7" font-family="Helvetica,sans-Serif" font-size="14.00">samples = 120</text>
<text xml:space="preserve" text-anchor="middle" x="215" y="-742.95" font-family="Helvetica,sans-Serif" font-size="14.00">value = [42, 40, 38]</text>
<text xml:space="preserve" text-anchor="middle" x="215" y="-727.2" font-family="Helvetica,sans-Serif" font-size="14.00">class = setosa</text>
</g>
<!-- 1 -->
<g id="node2" class="node">
<title>1</title>
<polygon fill="#e58139" stroke="black" points="195.25,-676.88 78.75,-676.88 78.75,-605.88 195.25,-605.88 195.25,-676.88"/>
<text xml:space="preserve" text-anchor="middle" x="137" y="-659.58" font-family="Helvetica,sans-Serif" font-size="14.00">gini = 0.0</text>
<text xml:space="preserve" text-anchor="middle" x="137" y="-643.83" font-family="Helvetica,sans-Serif" font-size="14.00">samples = 42</text>
<text xml:space="preserve" text-anchor="middle" x="137" y="-628.08" font-family="Helvetica,sans-Serif" font-size="14.00">value = [42, 0, 0]</text>
<text xml:space="preserve" text-anchor="middle" x="137" y="-612.33" font-family="Helvetica,sans-Serif" font-size="14.00">class = setosa</text>
</g>
<!-- 0&#45;&gt;1 -->
<g id="edge1" class="edge">
<title>0&#45;&gt;1</title>
<path fill="none" stroke="black" d="M187.5,-720.55C180.38,-709.52 172.69,-697.63 165.52,-686.52"/>
<polygon fill="black" stroke="black" points="168.56,-684.78 160.19,-678.27 162.68,-688.57 168.56,-684.78"/>
<text xml:space="preserve" text-anchor="middle" x="154.11" y="-696.02" font-family="Helvetica,sans-Serif" font-size="14.00">True</text>
</g>
<!-- 2 -->
<g id="node3" class="node">
<title>2</title>
<polygon fill="#f5fef9" stroke="black" points="375.12,-684.75 212.88,-684.75 212.88,-598 375.12,-598 375.12,-684.75"/>
<text xml:space="preserve" text-anchor="middle" x="294" y="-667.45" font-family="Helvetica,sans-Serif" font-size="14.00">petal width (cm) &lt;= 1.75</text>
<text xml:space="preserve" text-anchor="middle" x="294" y="-651.7" font-family="Helvetica,sans-Serif" font-size="14.00">gini = 0.5</text>
<text xml:space="preserve" text-anchor="middle" x="294" y="-635.95" font-family="Helvetica,sans-Serif" font-size="14.00">samples = 78</text>
<text xml:space="preserve" text-anchor="middle" x="294" y="-620.2" font-family="Helvetica,sans-Serif" font-size="14.00">value = [0, 40, 38]</text>
<text xml:space="preserve" text-anchor="middle" x="294" y="-604.45" font-family="Helvetica,sans-Serif" font-size="14.00">class = versicolor</text>
</g>
<!-- 0&#45;&gt;2 -->
<g id="edge2" class="edge">
<title>0&#45;&gt;2</title>
<path fill="none" stroke="black" d="M242.85,-720.55C248.4,-712.08 254.28,-703.09 260.01,-694.33"/>
<polygon fill="black" stroke="black" points="262.76,-696.52 265.3,-686.24 256.9,-692.69 262.76,-696.52"/>
<text xml:space="preserve" text-anchor="middle" x="271.25" y="-704.02" font-family="Helvetica,sans-Serif" font-size="14.00">False</text>
</g>
<!-- 3 -->
<g id="node4" class="node">
<title>3</title>
<polygon fill="#48e78a" stroke="black" points="297.75,-562 130.25,-562 130.25,-475.25 297.75,-475.25 297.75,-562"/>
<text xml:space="preserve" text-anchor="middle" x="214" y="-544.7" font-family="Helvetica,sans-Serif" font-size="14.00">petal length (cm) &lt;= 5.35</text>
<text xml:space="preserve" text-anchor="middle" x="214" y="-528.95" font-family="Helvetica,sans-Serif" font-size="14.00">gini = 0.13</text>
<text xml:space="preserve" text-anchor="middle" x="214" y="-513.2" font-family="Helvetica,sans-Serif" font-size="14.00">samples = 43</text>
<text xml:space="preserve" text-anchor="middle" x="214" y="-497.45" font-family="Helvetica,sans-Serif" font-size="14.00">value = [0, 40, 3]</text>
<text xml:space="preserve" text-anchor="middle" x="214" y="-481.7" font-family="Helvetica,sans-Serif" font-size="14.00">class = versicolor</text>
</g>
<!-- 2&#45;&gt;3 -->
<g id="edge3" class="edge">
<title>2&#45;&gt;3</title>
<path fill="none" stroke="black" d="M265.79,-597.8C260.18,-589.33 254.22,-580.34 248.42,-571.58"/>
<polygon fill="black" stroke="black" points="251.5,-569.88 243.06,-563.48 245.66,-573.75 251.5,-569.88"/>
</g>
<!-- 12 -->
<g id="node13" class="node">
<title>12</title>
<polygon fill="#8139e5" stroke="black" points="432.25,-554.12 315.75,-554.12 315.75,-483.12 432.25,-483.12 432.25,-554.12"/>
<text xml:space="preserve" text-anchor="middle" x="374" y="-536.83" font-family="Helvetica,sans-Serif" font-size="14.00">gini = 0.0</text>
<text xml:space="preserve" text-anchor="middle" x="374" y="-521.08" font-family="Helvetica,sans-Serif" font-size="14.00">samples = 35</text>
<text xml:space="preserve" text-anchor="middle" x="374" y="-505.32" font-family="Helvetica,sans-Serif" font-size="14.00">value = [0, 0, 35]</text>
<text xml:space="preserve" text-anchor="middle" x="374" y="-489.57" font-family="Helvetica,sans-Serif" font-size="14.00">class = virginica</text>
</g>
<!-- 2&#45;&gt;12 -->
<g id="edge12" class="edge">
<title>2&#45;&gt;12</title>
<path fill="none" stroke="black" d="M322.21,-597.8C329.51,-586.77 337.39,-574.88 344.75,-563.77"/>
<polygon fill="black" stroke="black" points="347.62,-565.78 350.22,-555.52 341.78,-561.92 347.62,-565.78"/>
</g>
<!-- 4 -->
<g id="node5" class="node">
<title>4</title>
<polygon fill="#43e687" stroke="black" points="220.25,-439.25 49.75,-439.25 49.75,-352.5 220.25,-352.5 220.25,-439.25"/>
<text xml:space="preserve" text-anchor="middle" x="135" y="-421.95" font-family="Helvetica,sans-Serif" font-size="14.00">sepal length (cm) &lt;= 4.95</text>
<text xml:space="preserve" text-anchor="middle" x="135" y="-406.2" font-family="Helvetica,sans-Serif" font-size="14.00">gini = 0.091</text>
<text xml:space="preserve" text-anchor="middle" x="135" y="-390.45" font-family="Helvetica,sans-Serif" font-size="14.00">samples = 42</text>
<text xml:space="preserve" text-anchor="middle" x="135" y="-374.7" font-family="Helvetica,sans-Serif" font-size="14.00">value = [0, 40, 2]</text>
<text xml:space="preserve" text-anchor="middle" x="135" y="-358.95" font-family="Helvetica,sans-Serif" font-size="14.00">class = versicolor</text>
</g>
<!-- 3&#45;&gt;4 -->
<g id="edge4" class="edge">
<title>3&#45;&gt;4</title>
<path fill="none" stroke="black" d="M186.15,-475.05C180.6,-466.58 174.72,-457.59 168.99,-448.83"/>
<polygon fill="black" stroke="black" points="172.1,-447.19 163.7,-440.74 166.24,-451.02 172.1,-447.19"/>
</g>
<!-- 11 -->
<g id="node12" class="node">
<title>11</title>
<polygon fill="#8139e5" stroke="black" points="350,-431.38 238,-431.38 238,-360.38 350,-360.38 350,-431.38"/>
<text xml:space="preserve" text-anchor="middle" x="294" y="-414.07" font-family="Helvetica,sans-Serif" font-size="14.00">gini = 0.0</text>
<text xml:space="preserve" text-anchor="middle" x="294" y="-398.32" font-family="Helvetica,sans-Serif" font-size="14.00">samples = 1</text>
<text xml:space="preserve" text-anchor="middle" x="294" y="-382.57" font-family="Helvetica,sans-Serif" font-size="14.00">value = [0, 0, 1]</text>
<text xml:space="preserve" text-anchor="middle" x="294" y="-366.82" font-family="Helvetica,sans-Serif" font-size="14.00">class = virginica</text>
</g>
<!-- 3&#45;&gt;11 -->
<g id="edge11" class="edge">
<title>3&#45;&gt;11</title>
<path fill="none" stroke="black" d="M242.21,-475.05C249.51,-464.02 257.39,-452.13 264.75,-441.02"/>
<polygon fill="black" stroke="black" points="267.62,-443.03 270.22,-432.77 261.78,-439.17 267.62,-443.03"/>
</g>
<!-- 5 -->
<g id="node6" class="node">
<title>5</title>
<polygon fill="#8139e5" stroke="black" points="112,-308.62 0,-308.62 0,-237.62 112,-237.62 112,-308.62"/>
<text xml:space="preserve" text-anchor="middle" x="56" y="-291.32" font-family="Helvetica,sans-Serif" font-size="14.00">gini = 0.0</text>
<text xml:space="preserve" text-anchor="middle" x="56" y="-275.57" font-family="Helvetica,sans-Serif" font-size="14.00">samples = 1</text>
<text xml:space="preserve" text-anchor="middle" x="56" y="-259.82" font-family="Helvetica,sans-Serif" font-size="14.00">value = [0, 0, 1]</text>
<text xml:space="preserve" text-anchor="middle" x="56" y="-244.07" font-family="Helvetica,sans-Serif" font-size="14.00">class = virginica</text>
</g>
<!-- 4&#45;&gt;5 -->
<g id="edge5" class="edge">
<title>4&#45;&gt;5</title>
<path fill="none" stroke="black" d="M107.15,-352.3C99.93,-341.27 92.15,-329.38 84.88,-318.27"/>
<polygon fill="black" stroke="black" points="87.89,-316.47 79.48,-310.02 82.03,-320.3 87.89,-316.47"/>
</g>
<!-- 6 -->
<g id="node7" class="node">
<title>6</title>
<polygon fill="#3ee684" stroke="black" points="297.75,-316.5 130.25,-316.5 130.25,-229.75 297.75,-229.75 297.75,-316.5"/>
<text xml:space="preserve" text-anchor="middle" x="214" y="-299.2" font-family="Helvetica,sans-Serif" font-size="14.00">petal length (cm) &lt;= 4.95</text>
<text xml:space="preserve" text-anchor="middle" x="214" y="-283.45" font-family="Helvetica,sans-Serif" font-size="14.00">gini = 0.048</text>
<text xml:space="preserve" text-anchor="middle" x="214" y="-267.7" font-family="Helvetica,sans-Serif" font-size="14.00">samples = 41</text>
<text xml:space="preserve" text-anchor="middle" x="214" y="-251.95" font-family="Helvetica,sans-Serif" font-size="14.00">value = [0, 40, 1]</text>
<text xml:space="preserve" text-anchor="middle" x="214" y="-236.2" font-family="Helvetica,sans-Serif" font-size="14.00">class = versicolor</text>
</g>
<!-- 4&#45;&gt;6 -->
<g id="edge6" class="edge">
<title>4&#45;&gt;6</title>
<path fill="none" stroke="black" d="M162.85,-352.3C168.4,-343.83 174.28,-334.84 180.01,-326.08"/>
<polygon fill="black" stroke="black" points="182.76,-328.27 185.3,-317.99 176.9,-324.44 182.76,-328.27"/>
</g>
<!-- 7 -->
<g id="node8" class="node">
<title>7</title>
<polygon fill="#39e581" stroke="black" points="194.12,-185.88 73.88,-185.88 73.88,-114.88 194.12,-114.88 194.12,-185.88"/>
<text xml:space="preserve" text-anchor="middle" x="134" y="-168.57" font-family="Helvetica,sans-Serif" font-size="14.00">gini = 0.0</text>
<text xml:space="preserve" text-anchor="middle" x="134" y="-152.82" font-family="Helvetica,sans-Serif" font-size="14.00">samples = 38</text>
<text xml:space="preserve" text-anchor="middle" x="134" y="-137.07" font-family="Helvetica,sans-Serif" font-size="14.00">value = [0, 38, 0]</text>
<text xml:space="preserve" text-anchor="middle" x="134" y="-121.33" font-family="Helvetica,sans-Serif" font-size="14.00">class = versicolor</text>
</g>
<!-- 6&#45;&gt;7 -->
<g id="edge7" class="edge">
<title>6&#45;&gt;7</title>
<path fill="none" stroke="black" d="M185.79,-229.55C178.49,-218.52 170.61,-206.63 163.25,-195.52"/>
<polygon fill="black" stroke="black" points="166.22,-193.67 157.78,-187.27 160.38,-197.53 166.22,-193.67"/>
</g>
<!-- 8 -->
<g id="node9" class="node">
<title>8</title>
<polygon fill="#9cf2c0" stroke="black" points="374.12,-193.75 211.88,-193.75 211.88,-107 374.12,-107 374.12,-193.75"/>
<text xml:space="preserve" text-anchor="middle" x="293" y="-176.45" font-family="Helvetica,sans-Serif" font-size="14.00">petal width (cm) &lt;= 1.55</text>
<text xml:space="preserve" text-anchor="middle" x="293" y="-160.7" font-family="Helvetica,sans-Serif" font-size="14.00">gini = 0.444</text>
<text xml:space="preserve" text-anchor="middle" x="293" y="-144.95" font-family="Helvetica,sans-Serif" font-size="14.00">samples = 3</text>
<text xml:space="preserve" text-anchor="middle" x="293" y="-129.2" font-family="Helvetica,sans-Serif" font-size="14.00">value = [0, 2, 1]</text>
<text xml:space="preserve" text-anchor="middle" x="293" y="-113.45" font-family="Helvetica,sans-Serif" font-size="14.00">class = versicolor</text>
</g>
<!-- 6&#45;&gt;8 -->
<g id="edge8" class="edge">
<title>6&#45;&gt;8</title>
<path fill="none" stroke="black" d="M241.85,-229.55C247.4,-221.08 253.28,-212.09 259.01,-203.33"/>
<polygon fill="black" stroke="black" points="261.76,-205.52 264.3,-195.24 255.9,-201.69 261.76,-205.52"/>
</g>
<!-- 9 -->
<g id="node10" class="node">
<title>9</title>
<polygon fill="#8139e5" stroke="black" points="282,-71 170,-71 170,0 282,0 282,-71"/>
<text xml:space="preserve" text-anchor="middle" x="226" y="-53.7" font-family="Helvetica,sans-Serif" font-size="14.00">gini = 0.0</text>
<text xml:space="preserve" text-anchor="middle" x="226" y="-37.95" font-family="Helvetica,sans-Serif" font-size="14.00">samples = 1</text>
<text xml:space="preserve" text-anchor="middle" x="226" y="-22.2" font-family="Helvetica,sans-Serif" font-size="14.00">value = [0, 0, 1]</text>
<text xml:space="preserve" text-anchor="middle" x="226" y="-6.45" font-family="Helvetica,sans-Serif" font-size="14.00">class = virginica</text>
</g>
<!-- 8&#45;&gt;9 -->
<g id="edge9" class="edge">
<title>8&#45;&gt;9</title>
<path fill="none" stroke="black" d="M267.67,-106.7C262.66,-98.27 257.4,-89.39 252.36,-80.9"/>
<polygon fill="black" stroke="black" points="255.46,-79.27 247.34,-72.46 249.44,-82.84 255.46,-79.27"/>
</g>
<!-- 10 -->
<g id="node11" class="node">
<title>10</title>
<polygon fill="#39e581" stroke="black" points="420.12,-71 299.88,-71 299.88,0 420.12,0 420.12,-71"/>
<text xml:space="preserve" text-anchor="middle" x="360" y="-53.7" font-family="Helvetica,sans-Serif" font-size="14.00">gini = 0.0</text>
<text xml:space="preserve" text-anchor="middle" x="360" y="-37.95" font-family="Helvetica,sans-Serif" font-size="14.00">samples = 2</text>
<text xml:space="preserve" text-anchor="middle" x="360" y="-22.2" font-family="Helvetica,sans-Serif" font-size="14.00">value = [0, 2, 0]</text>
<text xml:space="preserve" text-anchor="middle" x="360" y="-6.45" font-family="Helvetica,sans-Serif" font-size="14.00">class = versicolor</text>
</g>
<!-- 8&#45;&gt;10 -->
<g id="edge10" class="edge">
<title>8&#45;&gt;10</title>
<path fill="none" stroke="black" d="M318.33,-106.7C323.34,-98.27 328.6,-89.39 333.64,-80.9"/>
<polygon fill="black" stroke="black" points="336.56,-82.84 338.66,-72.46 330.54,-79.27 336.56,-82.84"/>
</g>
</g>
</svg>
